<svg xmlns="http://www.w3.org/2000/svg" aria-hidden="true" role="img" width="1em" height="1em" preserveAspectRatio="xMidYMid meet" viewBox="0 0 24 24">
  <mask id="chat-msg-mask">
    <rect shape-rendering="crispEdges" width="24" height="24" x="0" y="0" fill="white" />
    <circle cx="18" cy="6" r="9" fill="black" />
  </mask>

  <path fill="currentColor" d="M4 4h16v12H5.17L4 17.17V4m0-2c-1.1 0-1.99.9-1.99 2L2 22l4-4h14c1.1 0 2-.9 2-2V4c0-1.1-.9-2-2-2H4zm2 10h8v2H6v-2zm0-3h12v2H6V9zm0-3h12v2H6V6z" mask="url(#chat-msg-mask)"/>

  <mask id="chat-msg-circle-mask">
    <rect shape-rendering="crispEdges" width="24" height="24" x="0" y="0" fill="white" />
    <circle cx="18" cy="6" r="3" fill="black" />
  </mask>

  <circle cx="18" cy="6" r="6" fill="#5cd95b" mask="url(#chat-msg-circle-mask)" />
</svg>