<svg width="20" height="20" version="1.1" viewBox="0 0 24 24" xmlns="http://www.w3.org/2000/svg">
 <path transform="scale(1.2)" d="m10 1.666c-4.6024 0-8.334 3.7316-8.334 8.334 0 4.6024 3.7316 8.334 8.334 8.334 4.6024 0 8.334-3.7316 8.334-8.334 0-4.6024-3.7316-8.334-8.334-8.334zm0 1.668c3.675 0 6.666 2.991 6.666 6.666s-2.991 6.666-6.666 6.666-6.666-2.991-6.666-6.666 2.991-6.666 6.666-6.666zm-2.9453 2.541-1.1797 1.1797 2.9453 2.9453-2.9453 2.9453 1.1797 1.1797 2.9453-2.9453 2.9453 2.9453 1.1797-1.1797-2.9453-2.9453 2.9453-2.9453-1.1797-1.1797-2.9453 2.9453-2.9453-2.9453z" style="paint-order:stroke markers fill"/>
</svg>
