<svg xmlns="http://www.w3.org/2000/svg" aria-hidden="true" role="img" width="1em" height="1em" preserveAspectRatio="xMidYMid meet" viewBox="0 0 24 24"><path fill="currentColor" d="M15.657 17.282a8.734 8.734 0 0 0 3.013-1.225a8.728 8.728 0 0 0 3.221-3.745a8.723 8.723 0 0 0 .672-4.894a8.725 8.725 0 0 0-2.093-4.474A8.871 8.871 0 0 0 16.264.322a8.736 8.736 0 0 0-4.941.07a8.732 8.732 0 0 0-4.112 2.74a8.726 8.726 0 0 0-1.633 2.993a10.19 10.19 0 0 1 3.348-.972a6.136 6.136 0 0 1 3.167-2.283a6.139 6.139 0 0 1 3.472-.049a6.136 6.136 0 0 1 2.943 1.843a6.133 6.133 0 0 1 1.47 3.144a6.13 6.13 0 0 1-.472 3.438a6.133 6.133 0 0 1-2.264 2.632a6.131 6.131 0 0 1-1.312.64c.03.248.046.5.046.755a6.117 6.117 0 0 1-.337 2.009Zm-1.727-6.27a2.286 2.286 0 1 0 .001-4.572a2.286 2.286 0 0 0-.001 4.573ZM8.367 6.714a8.734 8.734 0 0 0-3.037 1.23a8.729 8.729 0 0 0-3.221 3.745a8.723 8.723 0 0 0-.672 4.893a8.726 8.726 0 0 0 2.093 4.474a8.732 8.732 0 0 0 4.188 2.622a8.736 8.736 0 0 0 4.94-.07a8.733 8.733 0 0 0 4.112-2.739a8.726 8.726 0 0 0 1.637-3.002a10.19 10.19 0 0 1-3.35.979a6.157 6.157 0 0 1-.279.36a6.135 6.135 0 0 1-2.889 1.925a6.139 6.139 0 0 1-3.472.049a6.136 6.136 0 0 1-2.943-1.843a6.132 6.132 0 0 1-1.47-3.144a6.13 6.13 0 0 1 .471-3.438a6.134 6.134 0 0 1 2.264-2.632a6.137 6.137 0 0 1 1.287-.632a6.196 6.196 0 0 1-.035-.659c0-.744.132-1.458.376-2.118Zm1.7 6.274a2.286 2.286 0 1 0-.002 4.573a2.286 2.286 0 0 0 .001-4.573Z"/></svg>