<svg width="20" height="20" version="1.1" viewBox="0 0 5.2917 5.2917" xmlns="http://www.w3.org/2000/svg">
 <path d="m2.6751 0.21342-0.1633 0.13384c-0.49074 0.40039-0.73922 0.91484-0.80873 1.3792-0.0728-0.09713-0.15451-0.24443-0.15451-0.24443l-0.13177-0.33848-0.25373 0.25735c-0.1362 0.13807-0.24754 0.28317-0.33951 0.43253-0.23591 0.38313-0.33277 0.79404-0.31006 1.1855 0.0097 0.16712 0.042087 0.32965 0.089917 0.48628 0.10788 0.35324 0.30336 0.67439 0.55965 0.93431 0.36993 0.37517 0.86601 0.62883 1.4025 0.66094 0.53599 0.03208 1.1084-0.16972 1.5937-0.66094 0.25858-0.26157 0.44251-0.58429 0.54053-0.93431 0.05287-0.18878 0.081908-0.38521 0.081649-0.58498 4.699e-4 -0.38584-0.10471-0.75987-0.29456-1.0868-0.0907-0.15618-0.19891-0.30237-0.32763-0.43253-0.4152-0.42107-0.89629-0.59708-1.3343-1.0382zm-0.03359 1.5131a1.1771 1.1938 0 0 1 0.00362 0 1.1771 1.1938 0 0 1 0.48679 0.10697 1.1771 1.1938 0 0 1 0.69039 1.0868 1.1771 1.1938 0 0 1-0.15141 0.58498 1.1771 1.1938 0 0 1-1.0258 0.60875 1.1771 1.1938 0 0 1-1.0258-0.60875 1.1771 1.1938 0 0 1-0.15141-0.58498 1.1771 1.1938 0 0 1 0.1943-0.65681 0.34172 0.50035 55.643 0 0 0.58808-0.00982 0.34172 0.50035 55.643 0 0 0.27027-0.42013 0.34172 0.50035 55.643 0 0-0.017053-0.098702 1.1771 1.1938 0 0 1 0.13798-0.00827z" fill="currentColor" stroke="none"/>
</svg>